<?xml version="1.0" encoding="UTF-8"?>
<svg width="10px" height="13px" viewBox="0 0 10 13" version="1.1" xmlns="http://www.w3.org/2000/svg" xmlns:xlink="http://www.w3.org/1999/xlink">
    <!-- Generator: Sketch 46.2 (44496) - http://www.bohemiancoding.com/sketch -->
    <title>Combined Shape</title>
    <desc>Created with Sketch.</desc>
    <defs></defs>
    <g id="Page-1" stroke="none" stroke-width="1" fill="none" fill-rule="evenodd">
        <g id="酒店频道_细节状态补充" transform="translate(-957.000000, -2104.000000)" fill="#050505">
            <g id="精选住宿" transform="translate(957.000000, 1867.000000)">
                <g id="Group-11-Copy-2">
                    <g id="Group-10">
                        <g id="Group-4">
                            <path d="M5.78823397,241.997013 L5.78823397,242 L9.09718919,242 C9.55517082,242 9.9264383,242.366195 9.9264383,242.825015 C9.9264383,243.280658 9.54943138,243.65003 9.09718919,243.65003 L5.78823397,243.65003 L5.78823397,244.724644 L9.09718919,244.724644 C9.55517082,244.724644 9.9264383,245.090839 9.9264383,245.549659 C9.9264383,246.005302 9.54943138,246.374674 9.09718919,246.374674 L5.78823397,246.374674 L5.78823397,248.863224 C5.78823397,249.318056 5.42203891,249.686769 4.96321915,249.686769 C4.50757604,249.686769 4.13820433,249.318799 4.13820433,248.863224 L4.13820433,246.374674 L0.829249109,246.374674 C0.371267472,246.374674 0,246.008479 0,245.549659 C0,245.094016 0.377006917,244.724644 0.829249109,244.724644 L4.13820433,244.724644 L4.13820433,243.65003 L0.829249109,243.65003 C0.371267472,243.65003 0,243.283835 0,242.825015 C0,242.369372 0.377006917,242 0.829249109,242 L4.13820433,242 L4.13820433,241.853464 L0.827904983,238.543165 C0.505821435,238.221082 0.503660139,237.701042 0.828094707,237.376608 C1.15028304,237.054419 1.67645873,237.058225 1.99465213,237.376418 L5.03499322,240.416759 L8.21170208,237.24005 C8.52989549,236.921857 9.05607118,236.918052 9.37825951,237.24024 C9.70269408,237.564674 9.70053278,238.084714 9.37844924,238.406797 L5.78823397,241.997013 Z" id="Combined-Shape"></path>
                        </g>
                    </g>
                </g>
            </g>
        </g>
    </g>
</svg>